<svg xmlns="http://www.w3.org/2000/svg" xmlns:xlink="http://www.w3.org/1999/xlink" viewBox="0 0 72 72"><defs><style>.cls-1{fill:#a652a0;}.cls-2{font-size:24px;fill:#231f20;font-family:Comfortaa-Bold, Comfortaa;font-weight:700;}.cls-3{letter-spacing:-0.02em;}.cls-4{fill:url(#linear-gradient);}</style><linearGradient id="linear-gradient" x1="6.4" y1="33.85" x2="65.74" y2="33.85" gradientUnits="userSpaceOnUse"><stop offset="0" stop-color="#3953a4"/><stop offset="0.2" stop-color="#00b4f1"/><stop offset="0.4" stop-color="#8fc84b"/><stop offset="0.6" stop-color="#f6eb14"/><stop offset="0.8" stop-color="#f57e20"/><stop offset="1" stop-color="#ed2024"/></linearGradient></defs><g id="Layer_2" data-name="Layer 2"><g id="Layer_1-2" data-name="Layer 1"><rect class="cls-1" width="72" height="72" rx="14.38"/><text class="cls-2" transform="translate(5.92 43.22)">VI<tspan class="cls-3" x="24.98" y="0">D</tspan><tspan x="43.3" y="0">A</tspan></text><path class="cls-4" d="M14.75,43.22a1.2,1.2,0,0,1-1.13-.79l-7-16.08A1.58,1.58,0,0,1,6.52,25a1,1,0,0,1,1-.53,1.16,1.16,0,0,1,1.16.75L14.84,40h-.26l6.29-14.81a1.25,1.25,0,0,1,.44-.59,1.35,1.35,0,0,1,.69-.16A1,1,0,0,1,23,25a1.21,1.21,0,0,1,0,1.14l-7.1,16.3a1.41,1.41,0,0,1-.45.58A1.08,1.08,0,0,1,14.75,43.22Z"/><path class="cls-4" d="M27.25,43.22A1.23,1.23,0,0,1,26,42V25.72a1.19,1.19,0,0,1,.36-.9,1.25,1.25,0,0,1,.89-.35,1.2,1.2,0,0,1,1.25,1.25V42a1.25,1.25,0,0,1-.35.89A1.19,1.19,0,0,1,27.25,43.22Z"/><path class="cls-4" d="M34.55,43.22A1.23,1.23,0,0,1,33.3,42V25.72a1.19,1.19,0,0,1,.36-.9,1.25,1.25,0,0,1,.89-.35h4.34a9.87,9.87,0,0,1,3.76.69,8.52,8.52,0,0,1,2.94,1.94,8.74,8.74,0,0,1,1.92,3,10.1,10.1,0,0,1,.67,3.76,10.21,10.21,0,0,1-.67,3.78,8.69,8.69,0,0,1-1.92,3,8.52,8.52,0,0,1-2.94,1.94,9.87,9.87,0,0,1-3.76.69ZM35.8,41h3.09a6.9,6.9,0,0,0,3.57-.92,6.62,6.62,0,0,0,2.43-2.55,8.2,8.2,0,0,0,0-7.43,6.54,6.54,0,0,0-2.43-2.52,7,7,0,0,0-3.57-.91H35.8Z"/><path class="cls-4" d="M50.87,43.22a1.13,1.13,0,0,1-1-.58,1.23,1.23,0,0,1-.08-1.22l6.75-16.11a1.21,1.21,0,0,1,1.17-.84,1.17,1.17,0,0,1,1.18.84l6.77,16.16a1.26,1.26,0,0,1-.09,1.21,1.16,1.16,0,0,1-1,.54,1.21,1.21,0,0,1-.68-.21,1.08,1.08,0,0,1-.47-.56l-6-14.78h.67L52,42.45a1.23,1.23,0,0,1-.49.58A1.38,1.38,0,0,1,50.87,43.22Zm1.27-4.13,1-2.06h9.41l1,2.06Z"/></g></g></svg>